<?xml version="1.0" encoding="utf-8"?>
<!-- Generator: Adobe Illustrator 27.6.1, SVG Export Plug-In . SVG Version: 6.00 Build 0)  -->
<svg version="1.1" id="Layer_1" xmlns="http://www.w3.org/2000/svg" xmlns:xlink="http://www.w3.org/1999/xlink" x="0px" y="0px"
	 viewBox="0 0 512 512" style="enable-background:new 0 0 512 512;" xml:space="preserve">
<style type="text/css">
	.st0{fill:#FFFFFF;}
</style>
<g>
	<path class="st0" d="M193.61,243.61c9.95-6.55,18.05-14.13,24.32-22.75c9.92-13.67,14.89-29.45,14.89-47.34
		c0-15.29-3.74-29.61-11.23-42.95c-7.49-13.34-18.87-24.24-34.17-32.7c-15.3-8.46-34.49-12.69-57.59-12.69h-73.7H38.56H0v341.66
		h38.56h17.57h78.09c24.4,0,44.98-4.47,61.74-13.42c16.76-8.94,29.45-20.74,38.07-35.39c8.62-14.64,12.93-30.75,12.93-48.32
		c0-21.48-6.02-40.18-18.06-56.13C219.83,261.55,208.06,251.56,193.61,243.61z M128.37,133.98c14.64,0,26.36,3.74,35.14,11.23
		c8.79,7.49,13.18,18.55,13.18,33.19c0,14.64-4.39,25.71-13.18,33.19c-8.79,7.49-20.5,11.23-35.14,11.23H56.13v-88.83H128.37z
		 M176.69,361.91c-9.44,10.74-22.78,16.11-40.02,16.11H56.13v-106.4h80.53c11.39,0,21.15,2.44,29.29,7.32
		c8.13,4.88,14.31,11.39,18.55,19.52c4.23,8.14,6.35,16.92,6.35,26.36C190.84,338.81,186.12,351.18,176.69,361.91z"/>
	<path class="st0" d="M503.21,286.75c-5.86-12.03-13.59-21.88-23.18-29.53c-9.6-7.64-20.18-13.91-31.73-18.79
		c-11.55-4.88-23.11-9.27-34.65-13.18c-11.55-3.9-22.13-8.05-31.73-12.45c-9.6-4.39-17.33-9.76-23.18-16.11
		c-5.86-6.35-8.79-14.72-8.79-25.14c0-12.36,4.8-21.96,14.4-28.8c9.59-6.83,22.86-10.25,39.78-10.25c13.67,0,25.78,2.68,36.36,8.05
		c10.57,5.37,20.74,13.59,30.5,24.65l38.07-38.07c-11.07-13.67-25.47-24.89-43.2-33.68c-17.74-8.79-37.83-13.18-60.28-13.18
		c-20.83,0-39.7,3.74-56.62,11.23c-16.92,7.49-30.35,18.3-40.27,32.46c-9.93,14.15-14.89,31.32-14.89,51.49
		c0,17.57,2.93,32.05,8.79,43.44c5.86,11.39,13.58,20.67,23.18,27.82c9.59,7.16,20.17,13.1,31.73,17.82
		c11.55,4.72,23.1,8.95,34.65,12.69c11.55,3.74,22.12,7.98,31.73,12.69c9.59,4.72,17.33,10.66,23.18,17.82
		c5.85,7.16,8.78,16.43,8.78,27.82c0,13.67-5.61,24.4-16.84,32.21c-11.23,7.81-26.28,11.71-45.15,11.71
		c-20.18,0-36.77-3.82-49.78-11.47c-13.02-7.64-24.24-18.3-33.68-31.97l-38.07,38.07c14.96,18.88,31.89,33.19,50.76,42.95
		c18.87,9.76,41.81,14.64,68.82,14.64c36.77,0,65.97-8.94,87.61-26.84c21.63-17.89,32.46-42.14,32.46-72.72
		C512,313.92,509.07,298.79,503.21,286.75z"/>
</g>
</svg>
